HIERARCHY
ROOT Hips
{
	OFFSET 0.000000 100.481300 0.000000
	CHANNELS 6 Xposition Yposition Zposition Xrotation Yrotation Zrotation
	JOINT Spine
	{
		OFFSET -0.279200 12.230698 -2.892100
		CHANNELS 3 Xrotation Yrotation Zrotation
		JOINT Spine1
		{
			OFFSET -0.325700 14.269203 -3.374200
			CHANNELS 3 Xrotation Yrotation Zrotation
			JOINT Spine2
			{
				OFFSET -0.372300 16.307602 -0.352600
				CHANNELS 3 Xrotation Yrotation Zrotation
				JOINT Neck
				{
					OFFSET -0.418800 17.814194 8.416900
					CHANNELS 3 Xrotation Yrotation Zrotation
					JOINT Head
					{
						OFFSET 0.000000 7.031097 3.806800
						CHANNELS 3 Xrotation Yrotation Zrotation
						JOINT HeadTop_End
						{
							OFFSET 0.000000 24.646606 12.978600
							CHANNELS 3 Xrotation Yrotation Zrotation
							End Site
							{
								OFFSET 0.000000 27.854965 0.000000
							}
						}
					}
				}
				JOINT LeftShoulder
				{
					OFFSET 16.952999 14.495407 -7.737500
					CHANNELS 3 Xrotation Yrotation Zrotation
					JOINT LeftArm
					{
						OFFSET 9.308998 -2.777710 0.208600
						CHANNELS 3 Xrotation Yrotation Zrotation
						JOINT LeftForeArm
						{
							OFFSET 29.972298 0.000000 0.000000
							CHANNELS 3 Xrotation Yrotation Zrotation
							JOINT LeftHand
							{
								OFFSET 26.026505 0.000000 0.000000
								CHANNELS 3 Xrotation Yrotation Zrotation
								JOINT LeftHandThumb1
								{
									OFFSET 12.240501 -7.147949 9.207150
									CHANNELS 3 Xrotation Yrotation Zrotation
									JOINT LeftHandThumb2
									{
										OFFSET 4.138618 -2.389435 2.389433
										CHANNELS 3 Xrotation Yrotation Zrotation
										JOINT LeftHandThumb3
										{
											OFFSET 2.726913 -1.574387 1.574386
											CHANNELS 3 Xrotation Yrotation Zrotation
											JOINT LeftHandThumb4
											{
												OFFSET 3.941010 -2.275345 2.275342
												CHANNELS 3 Xrotation Yrotation Zrotation
												End Site
												{
													OFFSET -0.005798 5.087799 0.009903
												}
											}
										}
									}
								}
								JOINT LeftHandIndex1
								{
									OFFSET 24.424698 -1.985611 5.953459
									CHANNELS 3 Xrotation Yrotation Zrotation
									JOINT LeftHandIndex2
									{
										OFFSET 6.426697 0.000000 0.000000
										CHANNELS 3 Xrotation Yrotation Zrotation
										JOINT LeftHandIndex3
										{
											OFFSET 5.337898 0.000000 0.000000
											CHANNELS 3 Xrotation Yrotation Zrotation
											JOINT LeftHandIndex4
											{
												OFFSET 4.409401 0.000000 0.000000
												CHANNELS 3 Xrotation Yrotation Zrotation
												End Site
												{
													OFFSET 0.000000 4.409363 0.014373
												}
											}
										}
									}
								}
								JOINT LeftHandMiddle1
								{
									OFFSET 23.810104 0.000000 0.000000
									CHANNELS 3 Xrotation Yrotation Zrotation
									JOINT LeftHandMiddle2
									{
										OFFSET 7.176498 0.000000 0.000000
										CHANNELS 3 Xrotation Yrotation Zrotation
										JOINT LeftHandMiddle3
										{
											OFFSET 6.774902 0.000000 0.000000
											CHANNELS 3 Xrotation Yrotation Zrotation
											JOINT LeftHandMiddle4
											{
												OFFSET 5.403328 0.000000 0.000000
												CHANNELS 3 Xrotation Yrotation Zrotation
												End Site
												{
													OFFSET -0.027702 5.403244 0.017414
												}
											}
										}
									}
								}
								JOINT LeftHandRing1
								{
									OFFSET 22.908401 -0.839279 -6.020567
									CHANNELS 3 Xrotation Yrotation Zrotation
									JOINT LeftHandRing2
									{
										OFFSET 6.337502 0.000000 0.000000
										CHANNELS 3 Xrotation Yrotation Zrotation
										JOINT LeftHandRing3
										{
											OFFSET 5.779297 0.000000 0.000000
											CHANNELS 3 Xrotation Yrotation Zrotation
											JOINT LeftHandRing4
											{
												OFFSET 4.965698 0.000000 0.000000
												CHANNELS 3 Xrotation Yrotation Zrotation
												End Site
												{
													OFFSET 0.000000 4.965668 0.016186
												}
											}
										}
									}
								}
								JOINT LeftHandPinky1
								{
									OFFSET 20.037003 -1.530319 -10.950146
									CHANNELS 3 Xrotation Yrotation Zrotation
									JOINT LeftHandPinky2
									{
										OFFSET 5.254700 0.000000 0.000000
										CHANNELS 3 Xrotation Yrotation Zrotation
										JOINT LeftHandPinky3
										{
											OFFSET 4.810204 0.000000 0.000000
											CHANNELS 3 Xrotation Yrotation Zrotation
											JOINT LeftHandPinky4
											{
												OFFSET 3.647202 0.000000 0.000000
												CHANNELS 3 Xrotation Yrotation Zrotation
												End Site
												{
													OFFSET 0.000000 3.647186 0.011889
												}
											}
										}
									}
								}
							}
						}
					}
				}
				JOINT RightShoulder
				{
					OFFSET -15.141001 14.495407 -7.737500
					CHANNELS 3 Xrotation Yrotation Zrotation
					JOINT RightArm
					{
						OFFSET -9.308998 -2.777710 0.208500
						CHANNELS 3 Xrotation Yrotation Zrotation
						JOINT RightForeArm
						{
							OFFSET -29.972300 0.000000 0.000000
							CHANNELS 3 Xrotation Yrotation Zrotation
							JOINT RightHand
							{
								OFFSET -26.026505 0.000000 0.000000
								CHANNELS 3 Xrotation Yrotation Zrotation
								JOINT RightHandThumb1
								{
									OFFSET -12.240601 -7.148026 9.207092
									CHANNELS 3 Xrotation Yrotation Zrotation
									JOINT RightHandThumb2
									{
										OFFSET -4.138618 -2.389435 2.389433
										CHANNELS 3 Xrotation Yrotation Zrotation
										JOINT RightHandThumb3
										{
											OFFSET -2.726974 -1.574417 1.574421
											CHANNELS 3 Xrotation Yrotation Zrotation
											JOINT RightHandThumb4
											{
												OFFSET -3.941010 -2.275345 2.275343
												CHANNELS 3 Xrotation Yrotation Zrotation
												End Site
												{
													OFFSET 0.005814 5.087799 0.009927
												}
											}
										}
									}
								}
								JOINT RightHandIndex1
								{
									OFFSET -24.424698 -1.985657 5.953444
									CHANNELS 3 Xrotation Yrotation Zrotation
									JOINT RightHandIndex2
									{
										OFFSET -6.426697 0.000000 0.000000
										CHANNELS 3 Xrotation Yrotation Zrotation
										JOINT RightHandIndex3
										{
											OFFSET -5.337898 0.000000 0.000000
											CHANNELS 3 Xrotation Yrotation Zrotation
											JOINT RightHandIndex4
											{
												OFFSET -4.409401 0.000000 0.000000
												CHANNELS 3 Xrotation Yrotation Zrotation
												End Site
												{
													OFFSET 0.000000 4.409363 0.014408
												}
											}
										}
									}
								}
								JOINT RightHandMiddle1
								{
									OFFSET -23.810097 0.000000 0.000000
									CHANNELS 3 Xrotation Yrotation Zrotation
									JOINT RightHandMiddle2
									{
										OFFSET -7.176498 0.000000 0.000000
										CHANNELS 3 Xrotation Yrotation Zrotation
										JOINT RightHandMiddle3
										{
											OFFSET -6.774902 0.000000 0.000000
											CHANNELS 3 Xrotation Yrotation Zrotation
											JOINT RightHandMiddle4
											{
												OFFSET -5.403328 0.000000 0.000000
												CHANNELS 3 Xrotation Yrotation Zrotation
												End Site
												{
													OFFSET 0.027702 5.403244 0.017457
												}
											}
										}
									}
								}
								JOINT RightHandRing1
								{
									OFFSET -22.908302 -0.839325 -6.020576
									CHANNELS 3 Xrotation Yrotation Zrotation
									JOINT RightHandRing2
									{
										OFFSET -6.337502 0.000000 0.000000
										CHANNELS 3 Xrotation Yrotation Zrotation
										JOINT RightHandRing3
										{
											OFFSET -5.779297 0.000000 0.000000
											CHANNELS 3 Xrotation Yrotation Zrotation
											JOINT RightHandRing4
											{
												OFFSET -4.965698 0.000000 0.000000
												CHANNELS 3 Xrotation Yrotation Zrotation
												End Site
												{
													OFFSET 0.000000 4.965668 0.016226
												}
											}
										}
									}
								}
								JOINT RightHandPinky1
								{
									OFFSET -20.037003 -1.530334 -10.950259
									CHANNELS 3 Xrotation Yrotation Zrotation
									JOINT RightHandPinky2
									{
										OFFSET -5.254700 0.000000 0.000000
										CHANNELS 3 Xrotation Yrotation Zrotation
										JOINT RightHandPinky3
										{
											OFFSET -4.810204 0.000000 0.000000
											CHANNELS 3 Xrotation Yrotation Zrotation
											JOINT RightHandPinky4
											{
												OFFSET -3.647202 0.000000 0.000000
												CHANNELS 3 Xrotation Yrotation Zrotation
												End Site
												{
													OFFSET 0.000000 3.647186 0.011917
												}
											}
										}
									}
								}
							}
						}
					}
				}
			}
		}
	}
	JOINT LeftUpLeg
	{
		OFFSET 15.427100 -6.655098 0.678600
		CHANNELS 3 Xrotation Yrotation Zrotation
		JOINT LeftLeg
		{
			OFFSET 4.081073 -39.591068 13.024000
			CHANNELS 3 Xrotation Yrotation Zrotation
			JOINT LeftFoot
			{
				OFFSET -4.081074 -37.707932 -15.979700
				CHANNELS 3 Xrotation Yrotation Zrotation
				JOINT LeftToeBase
				{
					OFFSET 5.346399 -15.068900 20.645000
					CHANNELS 3 Xrotation Yrotation Zrotation
					JOINT LeftToe_End
					{
						OFFSET 2.754700 0.931300 11.300900
						CHANNELS 3 Xrotation Yrotation Zrotation
						End Site
						{
							OFFSET 0.000000 11.669021 0.000000
						}
					}
				}
			}
		}
	}
	JOINT RightUpLeg
	{
		OFFSET -15.569500 -6.655098 0.678600
		CHANNELS 3 Xrotation Yrotation Zrotation
		JOINT RightLeg
		{
			OFFSET -4.081825 -39.591045 13.023800
			CHANNELS 3 Xrotation Yrotation Zrotation
			JOINT RightFoot
			{
				OFFSET 4.081824 -37.707954 -15.979600
				CHANNELS 3 Xrotation Yrotation Zrotation
				JOINT RightToeBase
				{
					OFFSET -5.346400 -15.068900 20.645000
					CHANNELS 3 Xrotation Yrotation Zrotation
					JOINT RightToe_End
					{
						OFFSET -2.754700 0.931300 11.300900
						CHANNELS 3 Xrotation Yrotation Zrotation
						End Site
						{
							OFFSET 0.000000 11.669021 0.000000
						}
					}
				}
			}
		}
	}
}
MOTION
Frames: 6
Frame Time: 0.033333
-2.923698 74.482300 3.006863 -9.637426 -28.153949 -6.590838 1.896199 5.008433 -1.039232 3.966178 8.818797 -1.877921 3.944803 8.809429 -1.983284 13.435273 0.620728 3.064679 8.996225 6.423054 -0.448947 -0.000000 0.000000 0.000000 0.766356 1.348789 -11.270773 -2.439783 -11.971633 -14.547388 0.000064 -106.519150 0.000055 -52.284214 -20.683947 -27.286368 -1.540042 3.690195 6.142343 -1.866166 43.684971 23.674235 0.109281 19.429832 12.411102 0.000002 -0.000002 0.000001 -0.000000 0.000001 -0.000002 0.000003 0.000003 -0.000040 0.000000 0.000000 -0.000002 0.000000 0.000001 -0.000005 -0.000005 -0.001931 0.015983 0.000006 0.001923 -0.015987 -0.000000 -0.000001 -0.000003 -0.000001 -0.000001 0.000003 -0.000000 0.000001 0.000001 -0.000003 0.000004 -0.000001 0.000004 -0.000000 -0.000003 0.000002 -0.000000 -0.000003 -0.018094 4.054244 0.511065 -0.018080 -4.054256 -0.511065 -0.000003 -0.000003 -0.000000 -0.000001 0.000003 -0.000002 0.488976 0.200442 6.303189 -7.775101 44.920406 23.403626 -0.000135 95.244775 0.000159 -12.557005 -36.619465 -43.482740 12.734008 4.104579 4.480648 41.416956 -38.521304 25.777952 12.332946 -18.120176 6.403568 -0.000000 0.000003 -0.000001 5.640069 -6.824570 79.121922 4.020284 -6.303924 65.023497 1.085849 -3.736206 32.401017 -0.000001 -0.000000 -0.000000 5.640070 -6.824570 79.121922 4.020286 -6.303927 65.023497 1.085847 -3.736207 32.401024 0.000000 0.000001 0.000002 5.640067 -6.824570 79.121915 4.020283 -6.303933 65.023490 1.085847 -3.736206 32.401014 -0.000000 -0.000000 -0.000001 5.640070 -6.824571 79.121922 4.020293 -6.303933 65.023497 1.085847 -3.736201 32.401014 -0.000001 0.000000 -0.000002 -34.447205 3.775082 28.743683 53.036228 -9.666343 -0.499303 -11.830980 -4.078989 -14.340872 0.000004 0.000002 -0.000004 -0.000000 -0.000000 -0.000000 -0.434893 1.484698 -17.319288 57.712196 9.940398 -9.003743 -26.250432 -7.541120 18.127626 -18.833372 -0.051334 2.535202 -0.000000 -0.000002 0.000000 
-2.476223 72.380760 2.797917 -13.087613 -33.478746 -9.163826 2.269229 1.733229 -0.757902 4.876166 2.503853 -1.868973 4.868125 2.513127 -1.880379 13.058510 3.871516 1.077155 12.601032 23.425802 -5.524609 0.000001 -0.000000 -0.000000 0.776919 1.924418 -11.789193 -1.343827 -2.187777 -2.013735 0.000000 -100.278365 -0.000011 -57.510562 -12.622605 -29.281448 -1.540039 3.690195 6.142343 -1.866164 43.684978 23.674250 0.109279 19.429832 12.411101 -0.000004 -0.000000 -0.000000 0.000002 0.000001 0.000001 0.000006 0.000002 -0.000039 -0.000001 -0.000001 -0.000002 0.000000 0.000001 -0.000000 -0.000003 -0.001931 0.015985 0.000003 0.001922 -0.015985 0.000003 -0.000002 0.000002 0.000003 -0.000001 0.000001 0.000002 0.000001 0.000001 -0.000001 0.000003 0.000001 0.000001 0.000000 0.000002 0.000001 -0.000000 0.000003 -0.018089 4.054245 0.511063 -0.018083 -4.054252 -0.511065 -0.000001 0.000001 0.000001 -0.000001 0.000001 0.000001 0.507726 -0.197514 7.555029 28.423518 31.717749 6.234709 0.000006 110.488576 -0.000013 -4.143851 -15.053810 -57.570510 12.734007 4.104576 4.480649 41.416956 -38.521304 25.777950 12.332945 -18.120169 6.403566 -0.000001 -0.000001 0.000000 5.640066 -6.824573 79.121929 4.020283 -6.303927 65.023497 1.085848 -3.736206 32.401014 0.000000 0.000001 -0.000001 5.640066 -6.824572 79.121929 4.020284 -6.303927 65.023497 1.085850 -3.736205 32.401024 -0.000000 0.000000 0.000000 5.640062 -6.824571 79.121915 4.020281 -6.303932 65.023490 1.085846 -3.736208 32.401017 0.000001 -0.000000 -0.000002 5.640066 -6.824573 79.121929 4.020289 -6.303935 65.023497 1.085846 -3.736204 32.401017 0.000001 0.000000 -0.000001 -30.732853 3.314856 29.625437 56.949789 -10.130216 0.783819 -15.538084 1.411429 -16.190533 -0.000004 -0.000003 0.000001 0.000000 -0.000002 0.000000 -3.359897 4.416441 -17.599465 64.074271 2.957218 -7.822763 -27.796396 -8.554521 17.296694 -20.732783 0.000013 -0.000001 -0.000001 -0.000004 -0.000001 
-1.717346 69.692108 2.805294 -16.087199 -37.290685 -13.456857 2.579018 -0.905796 0.110322 5.425092 -2.320294 -1.042487 5.447962 -2.292761 -0.985275 12.385005 6.502520 -0.697321 13.766052 36.108178 -8.933760 0.000000 0.000000 -0.000000 0.714510 1.849834 -10.645295 -0.799681 6.485351 6.015585 0.000016 -93.139294 0.000001 -62.595774 -4.508630 -35.505748 -1.540041 3.690194 6.142343 -1.866170 43.684971 23.674238 0.109280 19.429832 12.411097 0.000001 0.000001 -0.000000 0.000001 0.000001 0.000002 0.000005 0.000003 -0.000037 -0.000001 -0.000000 -0.000000 0.000001 -0.000002 -0.000001 -0.000005 -0.001931 0.015984 0.000005 0.001921 -0.015987 0.000002 0.000001 0.000004 -0.000001 0.000001 0.000000 0.000001 0.000001 0.000002 -0.000001 0.000003 0.000002 0.000002 0.000002 0.000001 0.000001 -0.000000 -0.000001 -0.018093 4.054244 0.511062 -0.018084 -4.054255 -0.511063 -0.000003 0.000003 0.000004 -0.000001 0.000001 0.000002 0.292859 -2.201247 4.022152 46.433122 17.452131 5.749741 -0.000018 112.135375 0.000030 1.664773 9.493073 -60.674783 12.734007 4.104574 4.480648 41.416956 -38.521307 25.777952 12.332946 -18.120176 6.403569 -0.000001 -0.000001 -0.000000 5.640065 -6.824571 79.121922 4.020285 -6.303923 65.023497 1.085848 -3.736204 32.401017 0.000001 0.000000 -0.000000 5.640068 -6.824570 79.121922 4.020287 -6.303927 65.023497 1.085848 -3.736205 32.401021 -0.000000 -0.000002 0.000001 5.640062 -6.824571 79.121915 4.020283 -6.303931 65.023490 1.085848 -3.736208 32.401017 0.000001 -0.000001 -0.000002 5.640069 -6.824572 79.121922 4.020293 -6.303935 65.023497 1.085847 -3.736202 32.401017 0.000002 -0.000000 0.000001 -29.729621 2.316910 32.468691 62.462770 -10.339629 2.476916 -19.204685 4.344606 -17.768076 -0.000106 0.000007 0.000002 0.000000 0.000000 -0.000000 -4.238008 4.939799 -17.055773 67.500936 -1.505514 -6.312339 -32.409702 -9.051509 14.833339 -22.171878 0.000002 0.000011 -0.000001 0.000002 0.000001 
-1.084440 66.471268 2.391299 -19.644785 -41.719151 -18.744194 2.899744 -2.475597 0.667857 5.818426 -4.965179 -0.409161 5.849002 -4.935429 -0.348546 12.393000 7.843519 -1.134559 12.545577 43.515593 -10.899922 -0.000001 0.000000 0.000000 0.616391 1.208180 -8.438746 -1.774152 11.528728 10.624148 -0.000052 -86.354491 -0.000056 -65.119037 -0.522454 -40.067932 -1.540042 3.690193 6.142342 -1.866166 43.684982 23.674242 0.109280 19.429834 12.411103 0.000000 0.000000 0.000002 -0.000001 0.000002 0.000001 0.000005 0.000002 -0.000037 -0.000001 -0.000002 -0.000000 0.000000 -0.000001 0.000000 -0.000006 -0.001930 0.015983 0.000007 0.001921 -0.015986 0.000003 0.000000 0.000001 -0.000002 -0.000000 -0.000000 -0.000001 0.000002 0.000001 -0.000002 0.000003 -0.000001 -0.000000 0.000000 0.000001 0.000001 0.000001 -0.000001 -0.018092 4.054245 0.511063 -0.018083 -4.054254 -0.511063 -0.000002 0.000000 0.000001 0.000000 -0.000002 0.000001 -0.168838 -4.048075 -1.676365 52.541152 8.526724 11.553278 0.000027 114.393825 -0.000008 -6.089177 20.832367 -42.711413 12.734004 4.104577 4.480648 41.416959 -38.521304 25.777948 12.332945 -18.120174 6.403570 0.000000 -0.000001 -0.000002 5.640070 -6.824571 79.121922 4.020280 -6.303927 65.023497 1.085848 -3.736205 32.401017 0.000002 0.000001 -0.000001 5.640070 -6.824570 79.121922 4.020289 -6.303929 65.023497 1.085850 -3.736207 32.401017 -0.000001 -0.000003 -0.000001 5.640063 -6.824570 79.121915 4.020284 -6.303932 65.023490 1.085847 -3.736204 32.401010 0.000001 0.000000 -0.000001 5.640070 -6.824571 79.121922 4.020291 -6.303935 65.023497 1.085846 -3.736201 32.401010 -0.000003 -0.000002 0.000001 -29.083659 1.845631 37.604785 67.916758 -10.734235 3.542623 -22.561423 6.151232 -19.691439 -0.000071 0.000000 -0.000001 -0.000000 0.000000 0.000000 -5.115404 6.024609 -16.731496 69.557274 -0.071813 -5.129601 -37.754868 -8.552643 13.169271 -15.243838 0.000010 0.000009 -0.000000 0.000003 0.000002 
-0.784298 63.300880 1.616286 -24.585607 -47.672620 -24.693828 3.037435 -3.172135 0.535393 5.957672 -5.835963 -0.584701 5.989858 -5.808883 -0.536587 13.444839 7.785418 -0.117072 10.050885 45.409632 -11.540042 -0.000001 0.000000 0.000000 0.532774 0.446560 -6.352622 -6.391186 12.968171 12.288735 0.000130 -81.446359 0.000135 -64.766654 -1.115822 -39.825716 -1.540039 3.690195 6.142342 -1.866166 43.684975 23.674240 0.109275 19.429832 12.411101 0.000000 -0.000000 -0.000001 0.000001 0.000001 0.000001 0.000009 0.000003 -0.000038 -0.000001 -0.000000 -0.000001 0.000001 -0.000001 -0.000001 -0.000004 -0.001931 0.015983 0.000006 0.001921 -0.015984 0.000001 -0.000002 0.000002 -0.000001 -0.000000 -0.000000 0.000001 0.000001 0.000001 -0.000001 0.000002 -0.000000 0.000003 -0.000000 0.000002 0.000000 -0.000001 -0.000000 -0.018092 4.054244 0.511063 -0.018087 -4.054255 -0.511065 -0.000002 0.000001 0.000002 0.000001 -0.000000 -0.000000 -0.485185 -4.316689 -5.942225 53.727801 1.993847 17.907916 0.000012 118.256475 -0.000004 -10.215633 14.687772 -24.901020 12.734009 4.104580 4.480646 41.416956 -38.521300 25.777955 12.332946 -18.120178 6.403562 0.000001 0.000001 -0.000003 5.640070 -6.824570 79.121922 4.020281 -6.303924 65.023497 1.085851 -3.736206 32.401014 -0.000000 0.000003 -0.000001 5.640071 -6.824570 79.121922 4.020283 -6.303926 65.023497 1.085846 -3.736204 32.401017 -0.000001 0.000000 -0.000001 5.640066 -6.824570 79.121915 4.020279 -6.303933 65.023490 1.085849 -3.736201 32.401017 0.000001 0.000001 -0.000000 5.640070 -6.824570 79.121922 4.020289 -6.303933 65.023497 1.085845 -3.736200 32.401017 -0.000001 -0.000000 0.000003 -26.502244 2.799137 43.803219 71.642974 -11.071834 3.354846 -25.627918 7.936288 -22.368361 -0.000036 0.000002 -0.000005 -0.000000 -0.000000 0.000000 -8.985029 9.031549 -15.976888 72.697248 5.723421 -4.934711 -40.030007 -7.838684 12.068343 -11.720052 0.000001 -0.000011 -0.000000 0.000000 -0.000001 
-0.593884 60.879395 0.837264 -30.115445 -53.761368 -31.074926 2.983044 -3.495449 0.226629 5.837561 -5.861452 -1.076053 5.871894 -5.834067 -1.041401 14.871847 7.145736 1.201809 7.900112 44.044967 -10.877448 -0.000001 0.000000 0.000000 0.496730 -0.022344 -5.358336 -13.939158 12.349248 11.047667 0.000060 -79.575925 0.000058 -62.700877 -4.549460 -36.622395 -1.540042 3.690195 6.142343 -1.866165 43.684978 23.674242 0.109278 19.429836 12.411106 -0.000002 -0.000001 -0.000004 -0.000001 0.000001 0.000001 0.000005 0.000002 -0.000038 -0.000001 -0.000001 -0.000002 -0.000001 -0.000000 -0.000000 -0.000005 -0.001931 0.015983 0.000008 0.001921 -0.015985 -0.000001 -0.000001 0.000002 0.000001 0.000000 -0.000000 -0.000001 0.000001 0.000001 -0.000004 0.000003 0.000000 -0.000000 0.000001 0.000002 0.000002 -0.000000 -0.000000 -0.018094 4.054246 0.511064 -0.018082 -4.054253 -0.511065 -0.000003 0.000001 0.000001 0.000001 -0.000000 0.000000 -0.491763 -3.632470 -7.553370 52.738227 -0.674291 24.887270 0.000025 122.419844 -0.000013 -4.191390 4.970008 -18.393722 12.734013 4.104579 4.480647 41.416952 -38.521304 25.777954 12.332949 -18.120179 6.403567 -0.000002 -0.000001 -0.000002 5.640074 -6.824572 79.121922 4.020283 -6.303921 65.023497 1.085851 -3.736204 32.401017 0.000001 0.000000 -0.000000 5.640074 -6.824571 79.121922 4.020286 -6.303928 65.023497 1.085848 -3.736205 32.401021 -0.000000 0.000004 -0.000000 5.640070 -6.824570 79.121915 4.020284 -6.303933 65.023490 1.085852 -3.736203 32.401014 0.000001 0.000000 0.000000 5.640074 -6.824572 79.121922 4.020289 -6.303933 65.023490 1.085845 -3.736201 32.401017 -0.000001 0.000001 0.000000 -22.882747 4.582769 49.178602 73.485035 -10.787304 2.470549 -28.008355 9.687939 -25.550013 -0.000026 -0.000003 -0.000000 -0.000000 0.000000 -0.000000 -15.306157 12.651279 -13.948492 76.475688 9.549869 -4.697416 -39.114933 -7.156869 11.167936 -10.310358 -0.000007 -0.000002 -0.000000 -0.000003 0.000000 
